<?xml version="1.0" encoding="UTF-8"?>
<svg xmlns="http://www.w3.org/2000/svg" xmlns:xlink="http://www.w3.org/1999/xlink" xmlns:a="http://ns.adobe.com/AdobeSVGViewerExtensions/3.0/" version="1.1" x="0px" y="0px" width="200px" height="70px" viewBox="-0.5 -1.241 200 70" xml:space="preserve"> <defs> </defs> 
<polygon fill="currentColor" points="102.607,39.247 108.531,39.247 114.108,45.602 119.36,39.247 124.706,39.247 124.706,55.444 118.393,55.444 118.468,46.818 112.422,53.41 106.387,46.801 106.387,55.444 102.659,55.444 "></polygon> <polygon fill="currentColor" points="170.095,39.247 178.047,39.255 182.34,44.808 187.308,39.247 192.102,39.247 192.978,39.247 194.808,39.247 194.808,39.991 193.992,39.991 193.992,42.614 192.907,42.614 192.907,39.991 192.251,39.991 184.436,48.009 184.436,55.5 177.901,55.5 177.901,48.795 "></polygon> <path fill="currentColor" d="M81.552,39.247h13.99c6.147,0.887,7.994,8.804,1.027,10.646c0,0,4.203,2.226,6.755,5.553h-8.736 c-0.112-0.143-0.232-0.282-0.36-0.42c-0.708-0.625-1.419-1.198-2.129-1.723c-2.023-1.308-4.217-2.113-4.217-2.113l0.001,4.254 h-6.146v-6.792c-1.719-0.298-2.812-0.386-4.421-0.316l4.421,7.108h-8.745l-3.754-5.723c-4.966,1.65-8.69,4.531-9.827,5.425 L59.147,55.5h-5.133l10.771-16.253l6.567-0.03l3.585,5.766c-2.286,0.408-4.951,1.271-7.136,2.546l-1.783-2.212l-4.395,6.276 c1.077-0.883,14.248-9.464,28.006-1.817c-3.636-2.56-4.895-3.389-8.078-4.493V39.247z M88.297,46.435 c8.153,0.323,7.381-4.526,0-4.165V46.435z"></path> <path fill-rule="evenodd" clip-rule="evenodd" fill="currentColor" d="M125.753,47.205c0-4.703,4.322-8.514,9.652-8.514h4.52 c5.332,0,9.655,3.811,9.655,8.514c0,4.702-4.323,8.515-9.655,8.515h-4.52C130.076,55.72,125.753,51.907,125.753,47.205 M133.043,47.238c0,2.764,2.031,5.005,4.537,5.005c2.505,0,4.536-2.241,4.536-5.005c0-2.767-2.031-5.007-4.536-5.007 C135.075,42.231,133.043,44.472,133.043,47.238"></path> <polygon fill="currentColor" points="150.534,39.255 150.534,55.513 154.733,55.513 154.733,47.2 163.56,56.027 169.883,56.027 169.883,39.247 165.023,39.247 165.023,46.832 157.372,39.183 "></polygon> <polygon fill="currentColor" points="195.012,39.247 195.012,42.614 196.026,42.614 196.026,40.104 196.039,40.104 196.615,42.614 197.395,42.614 197.973,40.104 197.986,40.104 197.986,42.614 199,42.614 199,39.247 197.449,39.247 197.01,41.243 197,41.243 196.563,39.247 "></polygon> <polygon fill="currentColor" points="48.357,34.932 54.746,34.932 54.746,43.633 54.839,47.366 54.746,55.498 48.357,55.498 48.357,47.366 40.254,47.366 40.254,55.498 33.258,55.498 33.258,34.932 40.254,34.932 40.254,43.633 48.357,43.633 "></polygon> <path fill="#D21110" d="M43.109,0.085c2.48-0.482,4.881,1.138,5.364,3.617l3.432,17.677c0.482,2.479-1.138,4.881-3.619,5.364 l-0.352,0.068c-2.479,0.482-4.881-1.138-5.363-3.618l-1.204-6.197L8.621,65.547c-1.414,2.093-4.403,2.579-6.498,1.166l-0.004-0.005 c-2.095-1.414-2.792-4.384-1.379-6.479l32.777-48.594l-6.248,1.215c-2.479,0.482-4.881-1.139-5.363-3.618l-0.068-0.352 c-0.481-2.479,1.138-4.881,3.618-5.362L43.109,0.085z"></path> </svg> 